<svg width="38" height="38" viewBox="0 0 38 38" fill="none" xmlns="http://www.w3.org/2000/svg">
<path d="M37.163 18.1629C36.7006 18.1629 36.326 18.5377 36.326 18.9999C36.326 28.5535 28.5535 36.326 19.0001 36.326C9.44646 36.326 1.67401 28.5535 1.67401 18.9999C1.67401 9.44646 9.44646 1.67401 19.0001 1.67401C21.8188 1.67401 24.6163 2.36583 27.0903 3.67479C27.4989 3.89108 28.0054 3.73484 28.2215 3.32638C28.4377 2.91781 28.2818 2.41125 27.8731 2.19508C25.1588 0.758998 22.0905 0 19.0001 0C8.52341 0 0 8.52341 0 18.9999C0 29.4766 8.52341 38 19.0001 38C29.4767 38 38 29.4766 38 18.9999C38 18.5377 37.6252 18.1629 37.163 18.1629Z" fill="currentColor"/>
<path d="M25.8394 6.31298C25.3657 6.32299 24.99 6.7087 25.0002 7.17449C25.0103 7.63409 25.3923 8 25.8575 8C25.8638 8 25.87 8 25.8763 7.99977L32.1606 7.86693C32.388 7.86221 32.6043 7.76862 32.7617 7.6071C32.919 7.44557 33.0047 7.22915 32.9998 7.00543L32.8646 0.825614C32.8544 0.359822 32.4573 -0.0126085 31.9885 0.000327048C31.5148 0.010338 31.1391 0.396042 31.1493 0.861834L31.2661 6.19825L25.8394 6.31298Z" fill="currentColor"/>
<path fill-rule="evenodd" clip-rule="evenodd" d="M22.2649 25.183C22.2649 25.6342 21.9041 26 21.4588 26C21.0136 26 20.6526 25.6342 20.6526 25.183V22.3961H15.8061C15.5019 22.3961 15.2236 22.2226 15.0865 21.9473C14.9494 21.672 14.9769 21.3419 15.1576 21.0939L20.8102 13.3318C21.0171 13.048 21.3804 12.9307 21.7108 13.041C22.0414 13.1512 22.2649 13.4642 22.2649 13.8171V20.7621H24.1939C24.6392 20.7621 25 21.1279 25 21.5791C25 22.0303 24.6392 22.3961 24.1939 22.3961H22.2649V25.183ZM20.6526 16.3L17.4031 20.7622H20.6526V16.3Z" fill="currentColor"/>
<path d="M6.2399 23.5576C6.00427 23.8007 5.93496 24.1643 6.06437 24.4795C6.19377 24.7948 6.49628 25 6.83171 25H14.1683C14.6276 25 15 24.6207 15 24.1528C15 23.685 14.6276 23.3057 14.1683 23.3057H8.82158L13.2053 18.783C14.33 17.6226 14.6496 15.9563 14.0393 14.4343C13.4476 12.9586 12.1198 12.0261 10.574 12.0006C10.5494 12.0002 10.5247 12 10.5001 12C8.01876 12 6.00005 14.0563 6.00005 16.5839C6.00005 17.0518 6.37241 17.4311 6.83171 17.4311C7.291 17.4311 7.66336 17.0518 7.66336 16.5839C7.66336 14.9906 8.93591 13.6943 10.5001 13.6943L10.5472 13.6947C11.4289 13.7092 12.1587 14.2252 12.4995 15.0749C12.777 15.7674 12.7974 16.7924 12.0217 17.5927L6.2399 23.5576Z" fill="currentColor"/>
<path d="M31.1537 26C31.6212 26 32 25.6242 32 25.1608V23.5499C32 21.9213 30.6638 20.5963 29.0215 20.5963H28.9784C28.5182 20.5963 28.0822 20.7005 27.6927 20.886V16.8392C27.6927 16.3758 27.3138 16 26.8463 16C26.3788 16 26 16.3758 26 16.8392V23.5499V25.1608C26 25.6242 26.3788 26 26.8463 26C27.3138 26 27.6927 25.6242 27.6927 25.1608V23.5499C27.6927 22.8468 28.2694 22.2748 28.9784 22.2748H29.0215C29.7305 22.2748 30.3073 22.8468 30.3073 23.5499V25.1608C30.3073 25.6242 30.6863 26 31.1537 26Z" fill="currentColor"/>
</svg>
