<svg width="54" height="51" viewBox="0 0 54 51" fill="none" xmlns="http://www.w3.org/2000/svg">
<path fill-rule="evenodd" clip-rule="evenodd" d="M17.9313 31C18.5208 31.0017 18.9983 31.4922 19 32.0976V38.9024C18.9983 39.5078 18.5208 39.9983 17.9313 40H6.0687C5.47925 39.9983 5.00167 39.5078 5 38.9024V32.0976C5.00167 31.4922 5.47925 31.0017 6.0687 31H17.9313ZM7.1374 37.9146H16.8626V33.1951H7.1374V37.9146Z" fill="currentColor"/>
<path fill-rule="evenodd" clip-rule="evenodd" d="M44.4505 22.46V14.1634C44.4488 14.0233 44.4202 13.8849 44.3653 13.7565L39.8355 2.5482C39.2149 0.999697 37.7186 -0.0101943 36.0604 0.00026H8.42212C6.76303 -0.0131216 5.26512 0.997607 4.64702 2.5482L0.0955407 13.767C0.0378009 13.8912 0.00540012 14.0263 0 14.1634V40.4127C0.0186927 42.6892 1.85349 44.5271 4.11531 44.5342H27.2553C29.8926 48.3881 34.3373 51 39.3673 51C47.428 51 54 44.3949 54 36.2698C53.9892 29.9537 49.9802 24.5475 44.4505 22.46ZM37.8574 3.32935L41.8028 13.0607H28.6697L26.9894 2.14131H36.0496C36.8376 2.12542 37.5545 2.59712 37.8574 3.32935ZM26.6916 15.2017H17.4399V23.7016L26.6916 20.0404V15.2017ZM17.6206 13.0607L19.386 2.14131H24.8306L26.5109 13.0607H17.6206ZM8.42212 2.14131C7.63411 2.12542 6.91714 2.59712 6.61432 3.32935L2.67971 13.0607H15.4726L17.238 2.14131H8.42212ZM4.11531 42.3931C3.02822 42.386 2.14551 41.5066 2.12682 40.4127V15.2017H15.3131V25.2752C15.3123 25.6314 15.4876 25.9647 15.7808 26.1638C15.9582 26.28 16.1651 26.3432 16.3765 26.3457C16.5111 26.3469 16.6448 26.3214 16.7699 26.2708L28.1484 21.7746C28.5534 21.6124 28.8188 21.2176 28.8184 20.7789V15.2017H42.3237V21.839C41.3512 21.6358 40.3605 21.5354 39.3673 21.5392C31.3066 21.5392 24.7351 28.1551 24.7351 36.2698C24.738 38.3782 25.1874 40.4624 26.0535 42.3823H4.11531V42.3931ZM26.8619 36.2698C26.8619 43.2165 32.456 48.8485 39.3569 48.8485C46.2475 48.8485 51.8624 43.2065 51.852 36.2698C51.852 29.3227 46.2575 23.6911 39.3569 23.6911C32.456 23.6911 26.8619 29.3227 26.8619 36.2698Z" fill="currentColor"/>
<path fill-rule="evenodd" clip-rule="evenodd" d="M45.8171 35.4093C45.8204 37.001 45.3065 38.5508 44.3527 39.8251L47.6826 43.1555C47.8856 43.3581 48 43.6331 48 43.9205C48 44.2074 47.8856 44.4824 47.6826 44.685C47.4763 44.8858 47.2005 44.9985 46.9123 44.9998C46.6238 45.0036 46.3458 44.8901 46.1425 44.685L42.8125 41.3545C41.5427 42.3084 39.9966 42.8225 38.4085 42.8191C34.3168 42.8191 31 39.5017 31 35.4093C31 31.3173 34.3168 28 38.4085 28C42.5003 28 45.8171 31.3173 45.8171 35.4093ZM37.0247 30.3592C34.7498 30.9876 33.1757 33.0599 33.1804 35.4203C33.1698 37.521 34.4185 39.4242 36.3502 40.2501C38.2814 41.0765 40.5194 40.665 42.0312 39.2064C42.0541 39.1754 42.0795 39.1462 42.1075 39.1199C42.1333 39.0915 42.1626 39.0661 42.1939 39.0436C43.8307 37.343 44.1282 34.758 42.921 32.7298C41.7139 30.7012 39.2996 29.7307 37.0247 30.3592Z" fill="currentColor"/>
</svg>
