<svg width="38" height="43" viewBox="0 0 38 43" fill="none" xmlns="http://www.w3.org/2000/svg">
<path fill-rule="evenodd" clip-rule="evenodd" d="M38 10.8582V10.857C38 10.8545 37.9996 10.8522 37.9996 10.8497C37.9994 10.8205 37.9981 10.7915 37.9952 10.7626C37.9942 10.7526 37.9927 10.7428 37.9911 10.7329L37.9911 10.7329L37.9891 10.7198L37.9878 10.7104L37.9878 10.7103C37.9859 10.6968 37.9841 10.6833 37.9814 10.67C37.9782 10.6535 37.974 10.6374 37.9699 10.6213L37.9683 10.6152L37.9651 10.6023C37.9632 10.5946 37.9613 10.5868 37.9591 10.5792C37.9535 10.5602 37.9466 10.5419 37.94 10.5235C37.936 10.5124 37.9322 10.5011 37.9278 10.49C37.9212 10.4738 37.9136 10.4581 37.906 10.4423L37.9051 10.4402L37.9003 10.4301L37.9003 10.4301C37.8961 10.4211 37.892 10.4123 37.8874 10.4035C37.8815 10.3925 37.8751 10.3816 37.8687 10.3709L37.8639 10.3627L37.859 10.3543L37.8589 10.3541C37.8523 10.343 37.8457 10.3318 37.8384 10.3209C37.8335 10.3135 37.8282 10.3063 37.823 10.2991L37.8158 10.2893L37.8139 10.2865C37.8035 10.2721 37.793 10.2576 37.7818 10.2439C37.7748 10.2352 37.7671 10.227 37.7597 10.2187L37.7571 10.2157C37.7446 10.2014 37.7321 10.1871 37.7187 10.1736L37.7116 10.1667L37.6934 10.1498L37.6866 10.1435L37.6866 10.1435C37.6746 10.1322 37.6626 10.121 37.6498 10.1104C37.6415 10.1034 37.6327 10.0969 37.624 10.0904L37.624 10.0904L37.612 10.0815L37.6016 10.0735C37.593 10.0668 37.5843 10.0602 37.5752 10.054C37.5522 10.0383 37.5283 10.0239 37.5039 10.0101L37.4999 10.0077L37.4999 10.0076C37.4982 10.0066 37.4965 10.0055 37.4948 10.0045L37.4933 10.0038L37.4875 10.0007L19.469 0.120046C19.1771 -0.0400153 18.8233 -0.0400153 18.5313 0.120046L0.50556 10.0043C0.502304 10.0061 0.49928 10.0081 0.496235 10.0102C0.493692 10.012 0.491135 10.0137 0.488416 10.0153C0.485373 10.0171 0.482211 10.0186 0.479044 10.0202C0.475588 10.0218 0.472125 10.0235 0.468804 10.0256C0.460069 10.0308 0.451927 10.0368 0.443799 10.0428L0.443785 10.0428C0.438745 10.0465 0.43371 10.0502 0.428541 10.0537L0.418168 10.0607C0.405252 10.0695 0.392391 10.0781 0.380096 10.0876C0.363012 10.1007 0.34712 10.1148 0.331133 10.129L0.326586 10.1331L0.316563 10.1419C0.305405 10.1517 0.294246 10.1616 0.283855 10.1721C0.268653 10.1874 0.254734 10.2037 0.240739 10.22L0.24073 10.22L0.236449 10.225L0.225103 10.2381C0.216552 10.2478 0.20804 10.2575 0.200213 10.2677C0.186803 10.2853 0.174884 10.3038 0.162913 10.3224L0.162909 10.3224L0.159171 10.3282L0.149866 10.3421C0.143006 10.3522 0.136144 10.3624 0.130078 10.373C0.11885 10.3926 0.109207 10.4131 0.0995911 10.4336L0.0954 10.4424C0.0928159 10.4479 0.0900908 10.4533 0.0873675 10.4586C0.0826995 10.4678 0.078037 10.477 0.0740997 10.4865C0.0624106 10.515 0.0531891 10.5444 0.0442274 10.574C0.0427818 10.5787 0.0410981 10.5833 0.0394108 10.588C0.0371567 10.5942 0.034896 10.6005 0.0331876 10.6069C0.0222777 10.648 0.0139654 10.6899 0.00838062 10.7326C0.00767631 10.7378 0.00746852 10.7431 0.00726016 10.7484C0.00708429 10.7529 0.00690802 10.7573 0.00643243 10.7618C0.00331532 10.7934 0.000198205 10.8251 0.000198205 10.8573V27.3372C0.000198205 27.8745 0.436334 28.31 0.974296 28.31C1.51226 28.31 1.94839 27.8745 1.94839 27.3372V12.464L5.45891 14.2984V19.5544C5.45891 20.0916 5.89505 20.5272 6.43301 20.5272C6.97097 20.5272 7.40711 20.0916 7.40711 19.5544V15.53L12.3502 18.1757V26.0303L6.89317 23.1096C6.41911 22.8559 5.82855 23.034 5.5745 23.5074C5.32033 23.981 5.49878 24.5706 5.97284 24.8244L12.8641 28.5128C13.008 28.5898 13.1662 28.6282 13.3243 28.6282C13.4977 28.6282 13.6708 28.582 13.8246 28.4901C14.1185 28.3144 14.2984 27.9974 14.2984 27.6554V18.9177L18.0261 20.8656V40.4255L1.42355 31.8091C0.946242 31.5615 0.358147 31.7471 0.109947 32.2238C-0.138124 32.7006 0.0477342 33.2879 0.525172 33.5356L18.5509 42.8907C18.5579 42.8943 18.5651 42.8973 18.5724 42.9003C18.5775 42.9025 18.5827 42.9046 18.5878 42.907C18.6034 42.9143 18.6188 42.9214 18.6347 42.9279C18.6588 42.9376 18.6834 42.9459 18.7081 42.9537L18.7203 42.9576C18.7315 42.9612 18.7426 42.9648 18.7539 42.9677C18.7813 42.9748 18.8091 42.98 18.8369 42.9847L18.8521 42.9875C18.8601 42.9891 18.8681 42.9907 18.8763 42.9917C18.9174 42.997 18.9587 43 19 43C19.0413 43 19.0826 42.9969 19.1238 42.9917C19.1324 42.9906 19.141 42.9889 19.1496 42.9872L19.1633 42.9846C19.1911 42.9799 19.2186 42.9747 19.246 42.9676C19.2616 42.9636 19.2767 42.9582 19.2921 42.9534C19.3168 42.9457 19.3412 42.9375 19.3654 42.9276C19.3812 42.9213 19.3968 42.914 19.4124 42.9067C19.4175 42.9044 19.4227 42.9022 19.4278 42.9C19.4351 42.897 19.4423 42.894 19.4493 42.8904L37.475 33.5354C37.7975 33.3679 38 33.0352 38 32.6722V10.8658V10.8582ZM8.74097 13.7914L15.4635 10.2584L19.9518 12.6015L13.5935 16.3098L8.74097 13.7914ZM19.9743 20.8656V40.4255L36.0518 32.0816V11.4328L19.0002 2.08255L3.04146 10.8334L6.63601 12.699L15.0084 8.29874C15.2914 8.14996 15.6297 8.14957 15.9133 8.29757L22.4155 11.6921C22.7295 11.856 22.9297 12.1774 22.938 12.5314C22.9463 12.8853 22.7613 13.2158 22.4554 13.3942L15.6377 17.3706L19.0607 19.1471L31.9262 12.424C32.4028 12.175 32.9915 12.359 33.2408 12.8349C33.4902 13.311 33.306 13.8988 32.8294 14.1478L19.9743 20.8656Z" fill="currentColor"/>
<path d="M32.6721 30.1106L25.4909 34.1418C25.0451 34.392 24.8711 34.986 25.1022 35.4686C25.2639 35.8064 25.5814 36 25.9102 36C26.0511 36 26.194 35.9644 26.3279 35.8894L33.5091 31.8582C33.9549 31.6079 34.1289 31.0139 33.8978 30.5314C33.6666 30.0489 33.118 29.8605 32.6721 30.1106Z" fill="currentColor"/>
<path d="M32.6721 25.1106L25.4909 29.1418C25.0451 29.3921 24.8711 29.986 25.1022 30.4686C25.2639 30.8064 25.5814 31 25.9102 31C26.0511 31 26.194 30.9644 26.3279 30.8894L33.5091 26.8582C33.9549 26.6079 34.1289 26.014 33.8978 25.5314C33.6666 25.0488 33.118 24.8605 32.6721 25.1106Z" fill="currentColor"/>
<path d="M32.6561 21.1036L28.4968 23.2617C28.0457 23.4958 27.8695 24.0515 28.1035 24.5029C28.2671 24.8189 28.5884 25 28.9212 25C29.0638 25 29.2085 24.9667 29.3439 24.8965L33.5032 22.7384C33.9543 22.5043 34.1305 21.9486 33.8965 21.4972C33.6624 21.0458 33.1072 20.8694 32.6561 21.1036Z" fill="currentColor"/>
</svg>
