<svg width="38" height="51" viewBox="0 0 38 51" fill="none" xmlns="http://www.w3.org/2000/svg">
<path fill-rule="evenodd" clip-rule="evenodd" d="M27.3554 3.1936H36.9699C37.5388 3.1936 38 3.65205 38 4.21754V49.9761C38 50.5415 37.5389 51 36.9699 51H1.03012C0.461219 51 0 50.5415 0 49.9761V4.21754C0 3.65205 0.461219 3.1936 1.03012 3.1936H6.22645C6.79535 3.1936 7.25657 3.65205 7.25657 4.21754C7.25657 4.78303 6.79535 5.24148 6.22645 5.24148H2.06024V48.9521H35.9398V5.24148H27.3554V8.20695C27.3554 8.77244 26.8944 9.23089 26.3253 9.23089H11.6747C11.1058 9.23089 10.6446 8.77244 10.6446 8.20695V1.02394C10.6446 0.458452 11.1058 0 11.6747 0H26.3253C26.8944 0 27.3554 0.458452 27.3554 1.02394V3.1936ZM12.7048 7.18301H25.2952V2.04788H12.7048V7.18301Z" fill="currentColor"/>
<path fill-rule="evenodd" clip-rule="evenodd" d="M11.9787 13C12.5427 13 13 13.4573 13 14.0213V19.9787C13 20.5427 12.5427 21 11.9787 21H6.02128C5.45726 21 5 20.5427 5 19.9787V14.0213C5 13.4573 5.45726 13 6.02128 13H11.9787ZM7.04255 18.9574H10.9574V15.0426H7.04255V18.9574Z" fill="currentColor"/>
<path d="M16.0408 18H30.9592C31.5341 18 32 17.5523 32 17C32 16.4477 31.5341 16 30.9592 16H16.0408C15.466 16 15 16.4477 15 17C15 17.5523 15.466 18 16.0408 18Z" fill="currentColor"/>
<path fill-rule="evenodd" clip-rule="evenodd" d="M11.9787 24C12.5427 24 13 24.4573 13 25.0213V30.9787C13 31.5427 12.5427 32 11.9787 32H6.02128C5.45726 32 5 31.5427 5 30.9787V25.0213C5 24.4573 5.45726 24 6.02128 24H11.9787ZM7.04255 29.9574H10.9574V26.0426H7.04255V29.9574Z" fill="currentColor"/>
<path d="M16.0408 29H30.9592C31.5341 29 32 28.5523 32 28C32 27.4477 31.5341 27 30.9592 27H16.0408C15.466 27 15 27.4477 15 28C15 28.5523 15.466 29 16.0408 29Z" fill="currentColor"/>
<path d="M11.9787 37.0426C12.5427 37.0426 13 36.5853 13 36.0213C13 35.4573 12.5427 35 11.9787 35H6.02128C5.45726 35 5 35.4573 5 36.0213V41.9787C5 42.5427 5.45726 43 6.02128 43H11.9787C12.5427 43 13 42.5427 13 41.9787C13 41.4147 12.5427 40.9574 11.9787 40.9574H7.04255V37.0426H11.9787Z" fill="currentColor"/>
<path d="M16.0408 41H30.9592C31.5341 41 32 40.5523 32 40C32 39.4477 31.5341 39 30.9592 39H16.0408C15.466 39 15 39.4477 15 40C15 40.5523 15.466 41 16.0408 41Z" fill="currentColor"/>
</svg>
