<svg width="48" height="64" viewBox="0 0 48 64" fill="none" xmlns="http://www.w3.org/2000/svg">
<path d="M24.0452 43.2H23.9554C21.7582 43.1714 19.9918 41.5186 19.986 39.4855C19.986 38.7227 19.3173 38.1045 18.4936 38.1045C17.6693 38.1045 17.0012 38.7227 17.0012 39.4855C17.0006 42.5295 19.2934 45.1625 22.5079 45.8098V47.619C22.5079 48.3818 23.176 49 24.0003 49C24.8246 49 25.4927 48.3818 25.4927 47.619V45.8098C28.9852 45.1053 31.3428 42.078 30.9592 38.789C30.5762 35.5001 27.575 33.0079 24.0003 33.0085C21.7833 33.0085 19.986 31.3454 19.986 29.2939C19.986 27.2424 21.7833 25.5788 24.0003 25.5788C26.2173 25.5788 28.0146 27.2424 28.0146 29.2939C28.0146 30.0567 28.6833 30.6749 29.507 30.6749C30.3313 30.6749 30.9994 30.0567 30.9994 29.2939C30.9959 26.2477 28.7066 23.6131 25.4927 22.955V21.381C25.4927 20.6182 24.8246 20 24.0003 20C23.176 20 22.5079 20.6182 22.5079 21.381V22.955C19.0142 23.6628 16.6572 26.6922 17.0408 29.9822C17.4238 33.2728 20.4238 35.7677 24.0003 35.7704C26.2173 35.759 28.0251 37.4129 28.0373 39.4644C28.0496 41.5159 26.2622 43.1887 24.0452 43.2Z" fill="currentColor"/>
<path fill-rule="evenodd" clip-rule="evenodd" d="M43.8718 9.73913H37.1518C36.5379 7.13098 34.2412 5.29022 31.5975 5.28696H30.3498C30.0889 2.36522 27.6482 0 24.6857 0H23.3689C20.407 0 17.9657 2.36522 17.7054 5.28696H16.4571C13.8139 5.29022 11.5173 7.13098 10.9029 9.73913H4.11429C1.86536 9.73913 0 11.6728 0 13.9685V59.812C0.0117857 62.1201 1.85304 63.988 4.12821 64H43.8718C46.147 63.988 47.9882 62.1201 48 59.812V13.9685C48 11.6728 46.1346 9.73913 43.8718 9.73913ZM23.3829 2.78261H24.6996C26.1332 2.79946 27.3504 3.85326 27.593 5.28696H20.4889C20.7316 3.85326 21.9487 2.79946 23.3829 2.78261ZM14.4129 8.94674C13.8696 9.50598 13.5686 10.262 13.5771 11.0467V15.5826H34.56V11.0467C34.5504 9.39565 33.225 8.06413 31.5975 8.06956H16.4711C15.697 8.07228 14.9561 8.38804 14.4129 8.94674ZM35.9175 18.3652C36.6718 18.3652 37.3029 17.7946 37.3029 17.0293V16.6957H38.9486V54.8174H9.05143V16.6957H10.8343V17.0293C10.8252 17.3864 10.9607 17.7321 11.2098 17.9842C11.4584 18.237 11.7991 18.3745 12.1511 18.3652H35.9175ZM43.8718 61.2174C44.6341 61.2098 45.2496 60.5853 45.2571 59.812V13.9685C45.2529 13.1875 44.6416 12.5489 43.8718 12.5217H37.3029V13.913H40.3473C40.7079 13.919 41.0513 14.0707 41.3009 14.3348C41.5511 14.5984 41.6866 14.9527 41.6775 15.3185V56.2364C41.685 56.5978 41.5473 56.9467 41.2971 57.2038C41.0464 57.4609 40.7036 57.6038 40.3473 57.6H7.63875C7.2825 57.6038 6.94018 57.4609 6.68946 57.2038C6.43875 56.9467 6.30161 56.5978 6.30857 56.2364V15.3185C6.3 14.9527 6.43554 14.5984 6.68518 14.3348C6.93482 14.0707 7.27821 13.919 7.63875 13.913H10.8343V12.5217H4.12821C3.35839 12.5489 2.74714 13.1875 2.74286 13.9685V59.812C2.75036 60.5853 3.36589 61.2098 4.12821 61.2174H43.8718Z" fill="currentColor"/>
<path d="M15.3249 53H33.6751C34.4069 53 35 52.3285 35 51.5C35 50.6715 34.4069 50 33.6751 50H15.3249C14.5931 50 14 50.6715 14 51.5C14 52.3285 14.5931 53 15.3249 53Z" fill="currentColor"/>
</svg>
