<svg width="47" height="52" viewBox="0 0 47 52" fill="none" xmlns="http://www.w3.org/2000/svg">
    <path fill-rule="evenodd" clip-rule="evenodd"
          d="M16.9975 38.809C12.6291 31.5396 7.1078 21.32 7.1078 16.0669C7.1078 7.20571 14.2897 0 23.1216 0C31.9536 0 39.1355 7.20571 39.1355 16.0669C39.1355 21.32 33.6142 31.5396 29.2458 38.809C34.4286 39.2016 46.2222 40.6131 46.2222 45.2931C46.2222 49.8988 34.2488 52 23.1111 52C11.9839 52 -5.34058e-05 49.8988 -5.34058e-05 45.2931C0.0105247 40.6131 11.8146 39.2016 16.9975 38.809ZM36.9248 16.0669C36.9248 8.42612 30.7266 2.20735 23.1216 2.20735C15.5061 2.20735 9.30785 8.42612 9.30785 16.0669C9.30785 22.742 19.9062 39.4882 23.1216 44.4122C26.3371 39.4882 36.9248 22.742 36.9248 16.0669ZM44.0221 45.2824C44.0221 46.8106 36.6498 49.782 23.1216 49.782C9.59344 49.782 2.22115 46.8212 2.21058 45.2824C2.21058 44.0939 7.07607 41.5682 18.2879 40.9208C20.3927 44.3273 21.9793 46.7575 22.2014 47.0229C22.9101 47.8612 23.7457 47.4049 24.0313 47.0229C24.2428 46.7363 25.84 44.3273 27.9448 40.9208C39.1566 41.5682 44.0221 44.1045 44.0221 45.2824Z"
          fill="currentColor"/>
    <path fill-rule="evenodd" clip-rule="evenodd"
          d="M23.1111 8.6665C19.3878 8.6665 16.3703 11.8995 16.3703 15.8887C16.3703 19.8779 19.3878 23.1109 23.1111 23.1109C26.8343 23.1109 29.8518 19.8779 29.8518 15.8887C29.8518 11.8995 26.8343 8.6665 23.1111 8.6665ZM23.1111 10.9461C25.658 10.9461 27.7242 13.1598 27.7242 15.8887C27.7242 18.6176 25.658 20.8314 23.1111 20.8314C20.5641 20.8314 18.4979 18.6176 18.4979 15.8887C18.4979 13.1598 20.5641 10.9461 23.1111 10.9461Z"
          fill="currentColor"/>
</svg>
