<svg width="56px" height="37px" viewBox="0 0 56 37" xmlns="http://www.w3.org/2000/svg">
  <defs>
    <linearGradient id="logogradient--@@id" x1="54.3" x2="0" y1="32.07" y2="18.5" gradientUnits="userSpaceOnUse">
      <stop stop-color="#232f69" offset="0"/>
      <stop stop-color="#069394" offset="1"/>
    </linearGradient>
  </defs>
  <g fill="none" fill-rule="evenodd">
    <g transform="translate(0)" fill="#e3dedb">
      <g transform="translate(0)" fill="#e3dedb">
        <path d="m37.973 0 18.027 18.5-18.027 18.5-17.931-18.5 5.8196-5.9879-2.8071-3.0533-8.5721 9.0412 15.709 16.5-2.1911 2-4.9455-5-4.8592 5-18.195-18.5 18.195-18.5 17.806 18.5-5.8103 6.1483 2.7175 2.7916 8.7118-8.9399-15.759-16.07 2.1384-2.4304 4.9086 5.2023 5.0645-5.2023zm-19.991 4.4339-13.34 14.081 13.34 14.081 3.0992-2.9875-10.949-11.108 10.949-11.216-3.0992-2.8505zm19.728 0-2.4218 3.0096 10.844 11.056-10.844 11.245 2.4218 2.2548 13.681-13.485-13.681-14.081zm-9.7102 10.16-3.5772 3.9059 3.5772 3.8996 3.7636-3.8849-3.7636-3.9206z" fill="url(#logogradient--@@id)"/>
      </g>
    </g>
  </g>
</svg>
