<svg width="56px" height="37px" viewBox="0 0 56 37" version="1.1" xmlns="http://www.w3.org/2000/svg">
    <title>Combined Shape</title>
    <g stroke="none" stroke-width="1" fill="none" fill-rule="evenodd">
        <g fill="currentColor" transform="translate(0.000000, -0.000000)">
            <g transform="translate(0.000000, 0.000000)">
                <path d="M37.9730366,0 L56,18.5 L37.9730366,37 L20.0419919,18.5 L25.8616371,12.5121359 L23.0545408,9.458807 L14.4823984,18.5 L30.1911192,35 L28,37 L23.0545408,32 L18.195333,37 L0,18.5 L18.195333,0 L36.0014273,18.5 L30.1911192,24.6483396 L32.9085797,27.4399418 L41.6203395,18.5 L25.8616371,2.43040321 L28,0 L32.9085797,5.20234095 L37.9730366,0 Z M17.9818927,4.43392989 L4.64144645,18.5147247 L17.9818927,32.5955195 L21.0810871,29.6079919 L10.1321127,18.5 L21.0810871,7.28442361 L17.9818927,4.43392989 Z M37.7101843,4.43392989 L35.2883953,7.44356982 L46.1323481,18.5 L35.2883953,29.7451953 L37.7101843,32 L51.3914285,18.5147247 L37.7101843,4.43392989 Z M28,14.5941371 L24.4227574,18.5 L28,22.3996382 L31.7636086,18.5147247 L28,14.5941371 Z"
                      ></path>
            </g>
        </g>
    </g>
</svg>