<svg width="100%" height="100%" enable-background="new 0 0 32 32" viewBox="0 0 32 32" xmlns="http://www.w3.org/2000/svg">
    <path d="m29.5625 5.3092h-27.125c-1.06854 0-1.9375.86896-1.9375 1.9375s.86896 1.9375 1.9375 1.9375h27.125c1.06812 0 1.9375-.86896 1.9375-1.9375s-.86938-1.9375-1.9375-1.9375z" fill="currentColor"/>
    <path d="m29.5625 14.0625h-27.125c-1.06854 0-1.9375.86896-1.9375 1.9375s.86896 1.9375 1.9375 1.9375h27.125c1.06812 0 1.9375-.86896 1.9375-1.9375s-.86938-1.9375-1.9375-1.9375z" fill="currentColor"/>
    <path d="m29.562 22.816h-27.125c-1.0685 0-1.9375 0.8689-1.9375 1.9375 0 1.0685 0.86896 1.9375 1.9375 1.9375h27.125c1.0681 0 1.9375-0.86896 1.9375-1.9375 0-1.0686-0.86938-1.9375-1.9375-1.9375z" fill="currentColor"/>
</svg>