<svg width="52" height="52" viewBox="0 0 52 52" fill="none" xmlns="http://www.w3.org/2000/svg">
<path fill-rule="evenodd" clip-rule="evenodd" d="M50.0481 0.170901C50.4927 -0.0766746 51.0362 -0.0537 51.4444 0.229654C51.8603 0.513007 52.0684 1.00828 51.9799 1.49816L44.1797 44.8947C44.1121 45.2776 43.8677 45.6096 43.5167 45.7959C43.1709 45.9823 42.7549 46.0001 42.3857 45.847L25.6569 38.8091L23.3714 50.0309C23.257 50.5976 22.7683 51.0188 22.178 51.0545C22.1604 51.0508 22.1399 51.0513 22.1197 51.0517C22.1131 51.0519 22.1065 51.052 22.1 51.052C21.5436 51.052 21.0444 50.7023 20.865 50.179L15.8704 35.4676L0.888792 30.5638C0.402623 30.4055 0.0594151 29.9818 0.00737339 29.484C-0.0472278 28.9837 0.204937 28.5012 0.646987 28.251L50.0481 0.170901ZM25.2124 35.8378L41.9048 42.8604L48.9353 3.74992L4.44835 29.0373L17.3109 33.2468C17.6983 33.3719 18.0052 33.673 18.1325 34.0534L21.783 44.8107L23.4236 36.7594C23.499 36.3842 23.746 36.0599 24.0944 35.8812C24.4402 35.7 24.851 35.6846 25.2124 35.8378Z" fill="currentColor"/>
<path d="M51.5474 0.307944C51.0368 -0.128748 50.2848 -0.0977373 49.81 0.380262L16.4481 33.9752C15.9476 34.4791 15.9476 35.2983 16.4481 35.8022C16.9485 36.3062 17.7621 36.3062 18.2625 35.8022L40.6638 13.2472L24.0109 36.7221C23.6004 37.301 23.7312 38.1099 24.3087 38.5233C24.5371 38.6861 24.7962 38.7636 25.0555 38.7636C25.4533 38.7636 25.851 38.575 26.1 38.2235L51.763 2.04454C52.1479 1.49677 52.0556 0.742093 51.5474 0.307944Z" fill="currentColor"/>
<path d="M30.6789 39.0286C30.107 38.5918 29.293 38.7056 28.8589 39.2932L21.0585 49.8823C20.6295 50.4674 20.7465 51.2959 21.3212 51.7353C21.5552 51.9127 21.8307 52 22.1012 52C22.4938 52 22.8865 51.8174 23.1412 51.4705L30.9416 40.8815C31.3706 40.2966 31.2536 39.468 30.6789 39.0286Z" fill="currentColor"/>
</svg>
