<svg width="52px" height="52px" viewBox="0 0 52 52" fill="none" xmlns="http://www.w3.org/2000/svg">
<path fill-rule="evenodd" clip-rule="evenodd" d="M41.9895 31.3217L49.7085 37.8785C52.3948 39.6415 52.7932 43.4326 50.5107 45.713L47.6731 48.5473C43.3231 52.893 37.1772 52.6332 31.3994 50.5246C25.5621 48.3937 19.1946 44.071 13.4701 38.3525C7.87779 32.7662 3.62907 26.5729 1.50669 20.9139C-0.971129 14.3076 -0.384141 8.92164 3.20372 5.3372L6.21253 2.33159C6.21333 2.33119 6.21412 2.3304 6.21452 2.3296L7.05727 1.48774C9.35002 -0.802172 13.1702 -0.391558 14.924 2.32643L20.4984 10.0646C20.5096 10.0805 20.5203 10.0964 20.5306 10.1126C21.8198 12.1355 21.5346 14.7329 19.8368 16.4289L15.6286 20.6339C15.3363 20.9251 15.2501 21.3587 15.4078 21.7395C15.4364 21.8082 15.4566 21.8784 15.4693 21.949C15.5762 22.2791 16.3863 24.6218 18.6338 27.5699C21.5811 31.436 25.4851 34.3924 30.2374 36.3562C30.6186 36.5133 31.0535 36.4272 31.345 36.1356L35.5536 31.9319C37.2515 30.2363 39.8516 29.951 41.8767 31.2388C41.916 31.2638 41.9537 31.2916 41.9895 31.3217ZM48.442 39.4685L40.7297 32.9174C39.5224 32.1846 37.9941 32.3659 36.9913 33.368L35.7081 34.6495L48.8622 44.4875L49.0726 44.2769C50.4512 42.9002 50.2017 40.5992 48.5544 39.5515C48.515 39.5265 48.4773 39.4987 48.442 39.4685ZM13.2254 3.44243C13.2357 3.45869 13.2465 3.47496 13.2576 3.49043L18.8296 11.2258C19.5866 12.4363 19.4114 13.9815 18.3991 14.9928L17.1556 16.2353L8.25627 3.16234L8.49496 2.9239C9.87903 1.5413 12.1805 1.80275 13.2254 3.44243ZM14.9078 36.9164C20.4274 42.4301 26.532 46.5854 32.0968 48.6167C36.3174 50.1572 42.196 51.1466 46.2354 47.1111L47.4098 45.9384L34.2557 36.1003L32.7827 37.5722C31.9074 38.4462 30.6035 38.7056 29.4602 38.2331C22.9536 35.5441 18.9746 31.4503 16.7823 28.4891C15.2926 26.4769 13.816 23.7462 13.4951 22.4306C13.0689 21.3087 13.3374 20.0487 14.1913 19.1973L15.6921 17.6973L6.79277 4.62428L4.64141 6.77375C0.873238 10.5375 1.89193 16.1532 3.41024 20.2014C5.43293 25.5945 9.51603 31.5308 14.9078 36.9164Z" fill="currentColor"/>
</svg>
