<svg width="100%" height="100%" viewBox="0 0 41 41" fill="none" xmlns="http://www.w3.org/2000/svg">
<path fill-rule="evenodd" clip-rule="evenodd" d="M39.293 28.5857L36.1159 25.4089C33.8434 23.136 30.1457 23.136 27.8729 25.4089L25.7342 27.5472C24.9056 28.3764 23.6018 28.4349 22.7019 27.6839C19.307 24.8508 16.1493 21.693 13.3162 18.2982C12.5652 17.3982 12.624 16.0945 13.4529 15.2658L15.5912 13.1272C17.8638 10.8547 17.8638 7.15667 15.5912 4.88414L12.4144 1.70698C11.3136 0.606216 9.84972 0 8.29289 0C6.73607 0 5.27246 0.606216 4.17138 1.70698C1.7972 4.08148 0.333591 7.23174 0.0505035 10.5778C-0.232584 13.9236 0.681117 17.275 2.623 20.0145C7.67729 27.1446 13.8552 33.3228 20.9855 38.3771C23.3985 40.0875 26.2857 41.0003 29.2261 41C29.6239 41 30.0234 40.9831 30.4222 40.9496C33.7683 40.6665 36.9185 39.2029 39.2927 36.8287C40.3938 35.728 41 34.2641 41 32.7072C41 31.1504 40.3938 29.6865 39.293 28.5857ZM21.9118 37.0705C14.9293 32.121 8.87909 26.0707 3.92959 19.0883C0.354549 14.0446 0.932611 7.2111 5.30405 2.83965C6.10232 2.04137 7.16398 1.60156 8.29289 1.60156C9.42211 1.60156 10.4835 2.04137 11.282 2.83965L14.4589 6.01649C15.2575 6.81509 15.697 7.87643 15.697 9.00566C15.697 10.1349 15.2572 11.1962 14.4589 11.9948L14.3269 12.1268L9.10775 6.90768C8.79494 6.59518 8.28789 6.59518 7.97508 6.90768C7.66259 7.22048 7.66259 7.72754 7.97508 8.04034L13.1942 13.2595L12.3202 14.1332C10.9017 15.552 10.801 17.7839 12.0866 19.3245C14.981 22.7932 18.2072 26.0191 21.6756 28.9135C23.2165 30.1992 25.448 30.0987 26.8669 28.6799L27.7409 27.8062L36.8069 36.8722C32.4655 40.1404 26.4609 40.2949 21.9118 37.0705ZM38.0466 35.8076C38.0846 35.7707 38.1227 35.7337 38.1604 35.6961C38.9586 34.8978 39.3984 33.8364 39.3984 32.7072C39.3984 31.5783 38.959 30.5166 38.1604 29.7184L34.9835 26.5412C34.1849 25.7429 33.1236 25.3031 31.9944 25.3031C30.8651 25.3031 29.8038 25.7429 29.0055 26.5412L28.8732 26.6732L37.9761 35.7762C37.9933 35.7934 38.009 35.8112 38.0243 35.8293L38.0466 35.8076Z" 
      fill="currentColor"/>
</svg>
