<svg width="38" height="45" viewBox="0 0 38 45" fill="none" xmlns="http://www.w3.org/2000/svg">
<path d="M11.0375 21C7.15696 21 4 24.1571 4 28.0375C4 28.5692 4.43095 29 4.96253 29C5.4941 29 5.92505 28.5692 5.92505 28.0375C5.92505 25.2184 8.21843 22.9251 11.0375 22.9251C11.569 22.9251 12 22.4942 12 21.9625C12 21.4308 11.569 21 11.0375 21Z" fill="currentColor"/>
<path fill-rule="evenodd" clip-rule="evenodd" d="M21.6348 29.0453C21.6348 30.6047 21.2522 32.109 20.5326 33.4689L26.982 39.4582C27.6385 40.0678 28 40.8785 28 41.7406C28 42.6028 27.6383 43.4135 26.9818 44.023L26.9468 44.0557C26.2688 44.6852 25.3783 45 24.4881 45C23.598 45.0001 22.7081 44.6855 22.0305 44.0563L17.9683 40.284C17.5918 39.9344 17.5918 39.3677 17.9683 39.018C18.3446 38.6686 18.9549 38.6686 19.3314 39.018L23.3936 42.7903C23.9972 43.3509 24.9793 43.3509 25.5829 42.7903L25.6181 42.7576C25.9111 42.4855 26.0722 42.1246 26.0722 41.7406C26.0722 41.3566 25.9111 40.9955 25.6187 40.7241L19.4987 35.0408C19.1863 35.4291 18.8422 35.7996 18.4664 36.1486C16.4233 38.0458 13.7068 39.0907 10.8174 39.0907C7.92794 39.0907 5.21135 38.0458 3.16835 36.1486C1.12522 34.2511 0 31.7285 0 29.0453C0 26.362 1.12522 23.8393 3.16835 21.9421C5.21148 20.0449 7.92794 19 10.8174 19C13.7068 19 16.4234 20.0449 18.4664 21.9421C20.5096 23.8394 21.6348 26.3622 21.6348 29.0453ZM10.8174 37.3004C13.1918 37.3004 15.4242 36.4417 17.1032 34.8825C18.7822 33.3234 19.7068 31.2504 19.7068 29.0453C19.7068 26.8404 18.7822 24.7673 17.1032 23.2082C15.4242 21.6489 13.1918 20.7903 10.8174 20.7903C8.44293 20.7903 6.21061 21.649 4.53159 23.2082C2.85257 24.7673 1.92797 26.8403 1.92797 29.0453C1.92797 31.2503 2.85257 33.3234 4.53159 34.8825C6.21061 36.4418 8.44293 37.3004 10.8174 37.3004Z" fill="currentColor"/>
<path d="M37.0769 0H7.92308C7.41329 0 7 0.413169 7 0.923077V16.1537C7 16.6636 7.41329 17.0768 7.92308 17.0768C8.43286 17.0768 8.84615 16.6636 8.84615 16.1537V1.84615H36.1538V29.1538H23.3083C22.7985 29.1538 22.3852 29.567 22.3852 30.0769C22.3852 30.5868 22.7985 31 23.3083 31H37.0769C37.5867 31 38 30.5868 38 30.0769V0.923077C38 0.413169 37.5867 0 37.0769 0Z" fill="currentColor"/>
<path fill-rule="evenodd" clip-rule="evenodd" d="M16.1335 5H11.9231C11.4133 5 11 5.41317 11 5.92308V10.1335C11 10.6434 11.4133 11.0566 11.9231 11.0566H15.2105V18.0769C15.2105 18.5868 15.6238 19 16.1335 19H24.0769C24.5867 19 25 18.5868 25 18.0769V10.1335C25 9.62363 24.5867 9.21046 24.0769 9.21046H17.0566V5.92308C17.0566 5.41317 16.6433 5 16.1335 5ZM12.846 6.84615H15.2103V9.21046H12.846V6.84615ZM17.0565 17.1538H23.1537V11.0566H17.0565V17.1538Z" fill="currentColor"/>
<path fill-rule="evenodd" clip-rule="evenodd" d="M26.6689 21.2487H23.9172C23.4107 21.2487 23 21.6777 23 22.2072V26.0414C23 26.571 23.4107 27 23.9172 27H27.5862C28.0927 27 28.5034 26.571 28.5034 26.0414V23.1658H34.0828C34.5893 23.1658 35 22.7367 35 22.2072V13.9586C35 13.429 34.5893 13 34.0828 13H27.5862C27.0796 13 26.6689 13.429 26.6689 13.9586V21.2487ZM26.6689 25.0829H24.8345V23.1658H26.6689V25.0829ZM33.1655 14.9171H28.5034V21.2487H33.1655V14.9171Z" fill="currentColor"/>
<path fill-rule="evenodd" clip-rule="evenodd" d="M34.0091 12H26.9909C26.4437 12 26 11.5493 26 10.993V5.007C26 4.45073 26.4437 4 26.9909 4H34.0091C34.5563 4 35 4.45073 35 5.007V10.993C35 11.5493 34.5563 12 34.0091 12ZM33.0182 6.014H27.9818V9.986H33.0182V6.014Z" fill="currentColor"/>
</svg>
