<svg width="56" height="55" viewBox="0 0 56 55" fill="none" xmlns="http://www.w3.org/2000/svg">
<path fill-rule="evenodd" clip-rule="evenodd" d="M27.5123 38C27.1682 38 26.8389 37.8599 26.6024 37.6124L16.5031 27.1911C10.499 20.9559 10.499 10.8714 16.5031 4.69863C19.4226 1.67473 23.3287 0 27.5 0C31.6713 0 35.5769 1.67473 38.4969 4.71132C44.501 10.9465 44.501 21.0306 38.4969 27.2038L28.4228 37.6124C28.1858 37.8599 27.857 38 27.5123 38ZM27.5123 2.49917C24.0491 2.49917 20.7879 3.89909 18.3482 6.43535C13.267 11.6587 13.267 20.2061 18.3482 25.4793L27.5123 34.9385L36.6765 25.4793C41.7582 20.2559 41.7582 11.709 36.6765 6.43535C34.2373 3.89909 30.976 2.49917 27.5123 2.49917Z" fill="currentColor"/>
<path fill-rule="evenodd" clip-rule="evenodd" d="M35 14.0002C35 17.866 31.6421 21 27.4997 21C23.3599 20.9957 20.0046 17.8641 20 14.0002C20 10.134 23.3579 7 27.4997 7C31.6421 7 35 10.134 35 14.0002ZM32.3868 14.0121C32.3868 11.4936 30.1987 9.45139 27.4997 9.45139C24.8033 9.45616 22.6183 11.4955 22.6132 14.0121C22.6132 16.5312 24.8013 18.5734 27.4997 18.5734C30.1987 18.5734 32.3868 16.5312 32.3868 14.0121Z" fill="currentColor"/>
<path fill-rule="evenodd" clip-rule="evenodd" d="M27.9997 44C30.698 44 33.2407 44.2416 35.1606 44.6871C36.1072 44.9033 39 45.5651 39 47.5C39 49.4344 36.1072 50.0962 35.1606 50.3124C33.2275 50.7579 30.698 51 27.9997 51C25.302 51 22.7593 50.7579 20.8394 50.3124C19.8923 50.0962 17 49.4344 17 47.5C17 45.5651 19.8923 44.9033 20.8394 44.6871C22.7725 44.2416 25.302 44 27.9997 44ZM20.2298 47.5C21.488 47.9455 24.1345 48.4545 27.9997 48.4545C31.8655 48.4545 34.512 47.9455 35.7702 47.5C34.512 47.0545 31.8786 46.5455 27.9997 46.5455C24.1214 46.5455 21.4753 47.0545 20.2298 47.5Z" fill="currentColor"/>
<path fill-rule="evenodd" clip-rule="evenodd" d="M27.9998 40C35.2322 40 42.0444 40.6609 47.1888 41.8556C53.0331 43.2157 55.9871 45.1225 56 47.5C56 49.877 53.0331 51.7838 47.1888 53.1439C42.0444 54.3386 35.2322 55 27.9998 55C20.7678 55 13.9556 54.3386 8.81116 53.1439C2.9669 51.7838 0 49.877 0 47.5C0 45.1225 2.9669 43.2157 8.81116 41.8556C13.9556 40.6609 20.7678 40 27.9998 40ZM27.9998 52.47C35.0412 52.47 41.65 51.8344 46.6029 50.678C52.1925 49.3685 53.4405 47.9067 53.4405 47.5C53.4405 47.0928 52.1925 45.6439 46.6029 44.3344C41.65 43.178 35.0412 42.5424 27.9998 42.5424C20.9588 42.5424 14.35 43.178 9.39708 44.3344C3.81991 45.631 2.55954 47.0928 2.55954 47.5C2.55954 47.9067 3.80698 49.3685 9.39708 50.678C14.35 51.8344 20.9588 52.47 27.9998 52.47Z" fill="currentColor"/>
</svg>
