<svg width="39" height="31" viewBox="0 0 39 31" fill="none" xmlns="http://www.w3.org/2000/svg">
<path fill-rule="evenodd" clip-rule="evenodd" d="M38.4209 15.5225L34.2226 14.6589L29.3486 7.32404C29.2141 7.12167 28.9864 7 28.7424 7H19.0641C18.6629 7 18.3378 7.32289 18.3378 7.72137C18.3378 8.11986 18.6629 8.44275 19.0641 8.44275H22.0389V19.9609C22.0389 20.3594 22.3639 20.6822 22.7651 20.6822C23.1663 20.6822 23.4914 20.3594 23.4914 19.9609V8.44265H28.3516L33.1754 15.7021C33.2812 15.8614 33.4462 15.9724 33.6342 16.0111L37.5471 16.8161V22.3259H7.45258V18.839C7.45258 18.4405 7.12749 18.1176 6.72629 18.1176C6.32509 18.1176 6 18.4405 6 18.839V23.0473V27.7954C6 28.1939 6.32509 28.5167 6.72629 28.5167H9.18637C9.58757 28.5167 9.91266 28.1939 9.91266 27.7954C9.91266 27.3969 9.58757 27.074 9.18637 27.074H7.45258V23.7687H37.5472V27.074H33.8075C33.4771 25.6533 32.1938 24.5907 30.6644 24.5907C29.1351 24.5907 27.8519 25.6534 27.5214 27.074H17.572C17.2416 25.6533 15.9583 24.5907 14.4289 24.5907C12.6498 24.5907 11.2024 26.0283 11.2024 27.7954C11.2024 29.5624 12.6498 31 14.4289 31C15.9583 31 17.2415 29.9374 17.572 28.5167H27.5216C27.852 29.9375 29.1353 31 30.6646 31C32.194 31 33.4772 29.9374 33.8077 28.5167H38.2737C38.6749 28.5167 39 28.1939 39 27.7954V23.0473V16.2288C38.9998 15.8868 38.758 15.5918 38.4209 15.5225ZM14.4289 29.5574C13.4507 29.5574 12.655 28.7669 12.655 27.7955C12.655 26.824 13.4508 26.0336 14.4289 26.0336C15.407 26.0336 16.2028 26.824 16.2028 27.7955C16.2028 28.7669 15.407 29.5574 14.4289 29.5574ZM28.8907 27.7955C28.8907 28.7669 29.6864 29.5574 30.6645 29.5574C31.6427 29.5574 32.4384 28.7669 32.4384 27.7955C32.4384 26.824 31.6426 26.0336 30.6645 26.0336C29.6865 26.0336 28.8907 26.824 28.8907 27.7955Z" fill="currentColor"/>
<path fill-rule="evenodd" clip-rule="evenodd" d="M8.49995 0C13.1869 0 17 3.81312 17 8.49995C17 13.1869 13.1869 16.9999 8.49995 17C3.81312 17 0 13.1869 0 8.49995C0 3.81302 3.81312 0 8.49995 0ZM8.49995 1.45977C4.61794 1.45977 1.45977 4.61794 1.45977 8.49995C1.45977 12.3819 4.61794 15.5402 8.49995 15.5402C12.382 15.5402 15.5402 12.382 15.5402 8.49995C15.5402 4.61794 12.382 1.45977 8.49995 1.45977Z" fill="currentColor"/>
<path d="M10.3825 11C10.5405 11 10.6986 10.9325 10.8192 10.7974C11.0603 10.527 11.0603 10.089 10.8192 9.81871L9.23478 8.04285V3.692C9.23478 3.30974 8.95844 3 8.61739 3C8.27634 3 8 3.30974 8 3.692V8.32952C8 8.51304 8.06503 8.68899 8.18077 8.8189L9.94593 10.7974C10.0665 10.9324 10.2246 11 10.3825 11Z" fill="currentColor"/>
</svg>
