<svg width="38" height="43" viewBox="0 0 38 43" fill="none" xmlns="http://www.w3.org/2000/svg">
<path fill-rule="evenodd" clip-rule="evenodd" d="M35.8614 15.2008C34.5079 12.599 32.537 10.3098 30.1615 8.58075C29.7655 8.29249 29.2105 8.38013 28.9222 8.77687C28.6341 9.17362 28.7218 9.72918 29.1181 10.0177C33.3281 13.0822 35.9317 17.918 36.2008 23.0886H27.6648C27.6207 20.9005 27.4141 18.7752 27.048 16.759C26.9604 16.2763 26.4976 15.9562 26.0164 16.044C25.5343 16.1318 25.2146 16.5943 25.3023 17.0769C25.6497 18.9893 25.8469 21.0077 25.8905 23.0887H12.1093C12.1536 20.9697 12.3572 18.9167 12.7163 16.9742C12.8055 16.4918 12.4871 16.0284 12.0054 15.9392C11.5233 15.8499 11.0608 16.1686 10.9716 16.651C10.593 18.6989 10.3799 20.8607 10.3351 23.0888H1.7988C2.07654 17.6571 4.88789 12.6736 9.44186 9.62685C9.84925 9.35434 9.95878 8.80269 9.68648 8.39482C9.4143 7.98694 8.86343 7.87727 8.45605 8.14978C3.16113 11.6924 0 17.6091 0 23.977C0 34.4663 8.52336 43 19 43C29.4766 43 38 34.4663 38 23.977C37.9999 20.9248 37.2603 17.8901 35.8614 15.2008ZM26.3006 34.3933C27.7996 35.0176 29.1993 35.8385 30.4604 36.8404C28.4231 38.662 25.9523 40.0069 23.2238 40.6981C23.9983 39.7746 24.7051 38.5858 25.3213 37.1508C25.6888 36.2951 26.0153 35.371 26.3006 34.3933ZM18.9999 41.2234C20.6784 41.2234 22.3884 39.4833 23.6913 36.4492C24.0442 35.6276 24.3574 34.7373 24.6296 33.7916C22.8425 33.2439 20.9463 32.9579 18.9999 32.9579C17.0607 32.9579 15.1625 33.2448 13.3713 33.7947C13.6431 34.7392 13.9561 35.6285 14.3085 36.4492C15.6114 39.4833 17.3214 41.2234 18.9999 41.2234ZM12.6783 37.1508C13.2945 38.5857 14.0014 39.7747 14.7759 40.6981C12.0474 40.0068 9.57659 38.6619 7.53908 36.8402C8.79897 35.8408 10.2009 35.0219 11.7003 34.3975C11.9854 35.3738 12.3115 36.2964 12.6783 37.1508ZM12.9362 32.0708C14.8699 31.4863 16.914 31.1814 18.9999 31.1814C21.0932 31.1814 23.1352 31.4848 25.0644 32.067C25.553 29.8561 25.8373 27.4129 25.8906 24.8651H12.1091C12.1626 27.4145 12.4471 29.8589 12.9362 32.0708ZM1.79679 24.8651H10.3348C10.3905 27.6192 10.7049 30.2681 11.2506 32.662C9.44636 33.3868 7.7656 34.3685 6.26973 35.5835C3.66456 32.7217 2.0064 28.9817 1.79679 24.8651ZM26.75 32.658C28.5536 33.3827 30.233 34.3642 31.7309 35.5824C34.3354 32.7209 35.9934 28.9813 36.203 24.865H27.6649C27.6092 27.6177 27.2951 30.2651 26.75 32.658Z" fill="currentColor"/>
<path d="M23 7C23 4.79445 21.2073 3 19.0039 3C18.4863 3 18.0669 3.41997 18.0669 3.938C18.0669 4.45602 18.4863 4.876 19.0039 4.876C20.1739 4.876 21.1258 5.82888 21.1258 7C21.1258 8.17112 20.1739 9.124 19.0039 9.124C18.3922 9.124 17.7809 8.85774 17.3684 8.41188C17.0158 8.03055 16.842 7.55479 16.8793 7.07241C16.9191 6.55589 16.5332 6.10477 16.0173 6.06488C15.502 6.02586 15.0507 6.41131 15.0107 6.92771C14.9328 7.93725 15.2816 8.91689 15.993 9.6863C16.7652 10.5212 17.8626 11 19.0039 11C21.2074 11 23 9.20555 23 7Z" fill="currentColor"/>
<path fill-rule="evenodd" clip-rule="evenodd" d="M19 21C18.7964 21 18.5934 20.9282 18.4304 20.7855C18.1679 20.5557 11.9999 15.0628 12 7.06094C12 3.16756 15.1401 0 18.9999 0C22.8597 0 25.9999 3.16756 26 7.06083C26 15.6571 19.7963 20.6095 19.5323 20.8161C19.3752 20.939 19.1874 21 19 21ZM24.2627 7.06094C24.2627 4.13381 21.9019 1.75236 18.9999 1.75236C16.098 1.75236 13.7371 4.13381 13.7371 7.06094C13.7371 12.9226 17.5773 17.4375 19.0261 18.9319C20.4802 17.5426 24.2627 13.3256 24.2627 7.06094Z" fill="currentColor"/>
</svg>
